PathFileType	4	(X/Y/Z)	Walk10.trc
DataRate	CameraRate	NumFrames	NumMarkers	Units	OrigDataRate	OrigDataStartFrame	OrigNumFrames
200.000000	200.000000	4	59	mm	200.000000	278	520
Frame#	Times		LFHD		RFHD		CLAV		RACR1		RUA1		RFA1		LACR1		LUA1		LFA1		LWRU		RTH1		RTH3		LTH2		LWRR		RWRR		LCAR		RElbow		RBack		RTB3		RCAR		LTH3		RTB1		LLFC		RWRU		RTB4		T10		RASI		C7		LTH4		LBHD		LASI		STRN		RBHD		RPSI		LTB2		LTH1		RTH2		LTB4		LToe		LTB1		LElbowM		LMMAL		RTH4		LElbow		RToe		LTB3		LCAL		LMT1		RElbowM		LMT5		RMT1		RTB2		LPSI		LLMAL		RLFC		RMT5		RCAL		RLMAL		RMMAL
			X1	Y1	Z1	X2	Y2	Z2	X3	Y3	Z3	X4	Y4	Z4	X5	Y5	Z5	X6	Y6	Z6	X7	Y7	Z7	X8	Y8	Z8	X9	Y9	Z9	X10	Y10	Z10	X11	Y11	Z11	X12	Y12	Z12	X13	Y13	Z13	X14	Y14	Z14	X15	Y15	Z15	X16	Y16	Z16	X17	Y17	Z17	X18	Y18	Z18	X19	Y19	Z19	X20	Y20	Z20	X21	Y21	Z21	X22	Y22	Z22	X23	Y23	Z23	X24	Y24	Z24	X25	Y25	Z25	X26	Y26	Z26	X27	Y27	Z27	X28	Y28	Z28	X29	Y29	Z29	X30	Y30	Z30	X31	Y31	Z31	X32	Y32	Z32	X33	Y33	Z33	X34	Y34	Z34	X35	Y35	Z35	X36	Y36	Z36	X37	Y37	Z37	X38	Y38	Z38	X39	Y39	Z39	X40	Y40	Z40	X41	Y41	Z41	X42	Y42	Z42	X43	Y43	Z43	X44	Y44	Z44	X45	Y45	Z45	X46	Y46	Z46	X47	Y47	Z47	X48	Y48	Z48	X49	Y49	Z49	X50	Y50	Z50	X51	Y51	Z51	X52	Y52	Z52	X53	Y53	Z53	X54	Y54	Z54	X55	Y55	Z55	X56	Y56	Z56	X57	Y57	Z57	X58	Y58	Z58	X59	Y59	Z59

278	1.39	-371.46	1421.8	-49.212	-377.46	1409.2	46.549	-393.73	1170.9	-18.372	-466.92	1193.1	162.19	-447.09	1053.2	242.04	-352.99	825.83	282.99	-473.57	1199.3	-206.93	-459.17	1035.6	-281.22	-441.33	834.01	-345.11	-452.79	725.09	-375.68	-500.55	624.71	185.41	-551	467.24	131.93	-386.26	574.92	-183.52	-401.75	725.43	-338.65	-312.82	735.09	247.55	-410.09	683.86	-390.63	-436.8	927.11	275.91	-582.77	1127.1	98.792	-674.55	125.93	27.627	-286.9	686.97	301.65	-413.9	471.47	-179.91	-592.63	275.1	54.83	-366.62	395.79	-140.09	-349.21	724.75	308.3	-636.08	200.72	41.076	-621.04	1052.8	-10.347	-402.48	810.33	142.08	-538.27	1253.2	-17.653	-434.04	551.47	-211.22	-497.74	1342.9	-77.081	-418.56	803.1	-179.81	-341.77	1064.6	-12.025	-505.11	1334	55.656	-663.95	838.55	33.005	-311.72	225.51	-128.1	-454.6	632.43	-233.25	-472.4	534.79	142.16	-291.24	232.44	-69.92	-118.11	104.41	-72.233	-312.47	317.69	-73.667	-518.65	892.66	-234.8	-269.07	87.965	-22.856	-527.66	546.6	162.77	-496.59	921.47	-301.61	-587.07	25.864	26.285	-264.56	153.83	-67.648	-317.94	34.782	-53.008	-159.5	88.775	-43.733	-484.54	886.83	206.97	-191.47	51.303	-118.26	-645.2	30.049	-11.277	-669.53	211.19	91.472	-669.04	829.82	-71.054	-286.17	64.474	-99.768	-602.73	389.61	108.94	-672.35	22.844	80.108	-805.06	77.016	14.239	-742.68	83.24	60.389	-728.13	91.805	-22.842
279	1.395	-365.56	1421.4	-49.729	-371.65	1408.8	46.034	-387.67	1170.5	-18.837	-461.31	1192.5	161.59	-441.32	1052.6	241.51	-347.61	825.36	282.86	-467.29	1198.5	-207.63	-452.92	1034.7	-281.8	-434.91	833.11	-345.65	-446.69	724.22	-376.27	-494.13	624.5	185.8	-544.86	466.95	132.68	-379.46	574.6	-183.25	-395.5	724.44	-339.45	-307.52	734.51	247.72	-404.13	682.98	-391.44	-431.23	926.76	275.61	-576.97	1126.4	97.874	-672.67	126.84	28.312	-281.74	686.47	301.95	-407.06	471.12	-179.21	-588.36	274.61	55.662	-360	395.35	-139.43	-344	724.31	308.44	-633.01	200.98	41.819	-614.84	1052.1	-11.183	-396.44	810.36	142.65	-532.35	1252.6	-18.488	-427.36	551.04	-210.65	-491.75	1342.4	-77.724	-411.75	802.08	-179.81	-335.59	1064.3	-12.104	-499.25	1333.5	55.007	-657.5	837.92	32.643	-306.68	224.33	-127.02	-448.05	631.93	-232.83	-466.12	534.4	142.79	-286.37	231.1	-68.747	-114.38	99.883	-70.324	-306.77	316.5	-72.684	-511.81	891.83	-235.12	-265.99	86.368	-21.609	-521.41	546.33	163.34	-489.91	920.57	-301.93	-587.19	25.82	26.019	-260.44	152.3	-66.284	-315.47	34.5	-52.16	-156.4	85.223	-42.042	-479.09	886.39	206.78	-188.8	48.623	-116.92	-645.23	30.25	-11.149	-666.18	211.83	92.351	-662.34	829.11	-71.343	-283.07	63.398	-98.623	-596.87	389.36	109.85	-672.14	22.925	80.209	-803.88	80.213	15.135	-741.41	85.089	61.183	-726.91	93.67	-22.047
280	1.4	-359.65	1421	-50.243	-365.84	1408.4	45.52	-381.6	1170	-19.335	-455.69	1192	160.96	-435.61	1052.2	240.96	-342.29	824.9	282.72	-460.97	1197.7	-208.36	-446.66	1033.9	-282.41	-428.41	832.24	-346.15	-440.49	723.38	-376.8	-487.62	624.31	186.19	-538.52	466.66	133.46	-372.55	574.42	-182.99	-389.18	723.49	-340.16	-302.28	733.94	247.89	-398.07	682.1	-392.15	-425.71	926.44	275.28	-571.15	1125.8	96.914	-670.62	127.82	29.032	-276.67	685.99	302.26	-400.12	470.91	-178.55	-583.88	274.1	56.558	-353.32	395.03	-138.83	-338.89	723.88	308.57	-629.76	201.26	42.615	-608.63	1051.5	-12.05	-390.36	810.44	143.16	-526.4	1252.1	-19.358	-420.56	550.77	-210.09	-485.73	1341.9	-78.378	-404.94	801.12	-179.82	-329.4	1063.9	-12.266	-493.37	1332.9	54.346	-651	837.3	32.312	-301.75	223.21	-126.03	-441.37	631.6	-232.41	-459.7	534.05	143.44	-281.6	229.79	-67.65	-110.91	95.004	-68.524	-301.09	315.36	-71.777	-504.94	891.07	-235.45	-263.17	84.786	-20.453	-515.01	546.08	163.94	-483.19	919.71	-302.26	-587.35	25.775	25.742	-256.52	150.77	-65.005	-313.35	34.373	-51.395	-153.59	81.433	-40.455	-473.67	886	206.53	-186.52	45.823	-115.71	-645.25	30.469	-11.017	-662.63	212.5	93.275	-655.63	828.43	-71.604	-280.26	62.381	-97.569	-590.76	389.06	110.82	-671.94	23.052	80.308	-802.49	83.618	16.026	-740.01	87.062	61.992	-725.51	95.653	-21.226
281	1.405	-353.74	1420.7	-50.755	-360.02	1408.1	45.007	-375.49	1169.7	-19.866	-450.04	1191.5	160.31	-429.97	1051.8	240.4	-337.05	824.46	282.57	-454.61	1197.1	-209.12	-440.38	1033.1	-283.04	-421.82	831.41	-346.62	-434.18	722.57	-377.28	-481	624.16	186.59	-531.99	466.36	134.29	-365.55	574.38	-182.72	-382.78	722.57	-340.78	-297.12	733.38	248.06	-391.89	681.26	-392.77	-420.25	926.14	274.92	-565.32	1125.3	95.917	-668.38	128.87	29.783	-271.71	685.51	302.57	-393.11	470.85	-177.92	-579.16	273.56	57.52	-346.59	394.83	-138.3	-333.88	723.47	308.68	-626.3	201.57	43.46	-602.39	1051	-12.944	-384.26	810.57	143.59	-520.39	1251.6	-20.26	-413.67	550.67	-209.55	-479.7	1341.4	-79.041	-398.11	800.22	-179.83	-323.18	1063.7	-12.514	-487.46	1332.5	53.674	-644.48	836.68	32.019	-296.9	222.18	-125.13	-434.56	631.44	-232	-453.12	533.75	144.09	-276.93	228.56	-66.651	-107.67	89.868	-66.861	-295.43	314.3	-70.962	-498.03	890.38	-235.78	-260.52	83.262	-19.411	-508.47	545.84	164.55	-476.42	918.9	-302.59	-587.54	25.73	25.46	-252.76	149.3	-63.841	-311.52	34.41	-50.726	-150.99	77.486	-38.997	-468.27	885.67	206.24	-184.55	42.972	-114.66	-645.23	30.709	-10.886	-658.88	213.22	94.235	-648.93	827.81	-71.835	-277.68	61.449	-96.631	-584.4	388.73	111.86	-671.73	23.239	80.398	-800.87	87.248	16.89	-738.46	89.171	62.8	-723.9	97.761	-20.389
